name C:\Users\u0150099\Documents\master_thesis\3dpredictsim\Results\debug\Fal_s1_mtj_sc_cspx10_oy_MTPm_k1_d01_MTJm_nl_MG_exp_table_d01_PF_Natali2010_x10_ls146_ig21.mot
datacolumns 128
datarows 4
range 0.00000000 0.03153946
endheader
time	pelvis_tilt	pelvis_list	pelvis_rotation	pelvis_tx	pelvis_ty	pelvis_tz	hip_flexion_l	hip_adduction_l	hip_rotation_l	hip_flexion_r	hip_adduction_r	hip_rotation_r	knee_angle_l	knee_angle_r	ankle_angle_l	ankle_angle_r	subtalar_angle_l	subtalar_angle_r	mtj_angle_l	mtj_angle_r	mtp_angle_l	mtp_angle_r	lumbar_extension	lumbar_bending	lumbar_rotation	arm_flex_l	arm_add_l	arm_rot_l	arm_flex_r	arm_add_r	arm_rot_r	elbow_flex_l	elbow_flex_r	pro_sup_l	pro_sup_r	glut_med1_l/activation	glut_med2_l/activation	glut_med3_l/activation	glut_min1_l/activation	glut_min2_l/activation	glut_min3_l/activation	semimem_l/activation	semiten_l/activation	bifemlh_l/activation	bifemsh_l/activation	sar_l/activation	add_long_l/activation	add_brev_l/activation	add_mag1_l/activation	add_mag2_l/activation	add_mag3_l/activation	tfl_l/activation	pect_l/activation	grac_l/activation	glut_max1_l/activation	glut_max2_l/activation	glut_max3_l/activation	iliacus_l/activation	psoas_l/activation	quad_fem_l/activation	gem_l/activation	peri_l/activation	rect_fem_l/activation	vas_med_l/activation	vas_int_l/activation	vas_lat_l/activation	med_gas_l/activation	lat_gas_l/activation	soleus_l/activation	tib_post_l/activation	flex_dig_l/activation	flex_hal_l/activation	tib_ant_l/activation	per_brev_l/activation	per_long_l/activation	per_tert_l/activation	ext_dig_l/activation	ext_hal_l/activation	ercspn_l/activation	intobl_l/activation	extobl_l/activation	glut_med1_r/activation	glut_med2_r/activation	glut_med3_r/activation	glut_min1_r/activation	glut_min2_r/activation	glut_min3_r/activation	semimem_r/activation	semiten_r/activation	bifemlh_r/activation	bifemsh_r/activation	sar_r/activation	add_long_r/activation	add_brev_r/activation	add_mag1_r/activation	add_mag2_r/activation	add_mag3_r/activation	tfl_r/activation	pect_r/activation	grac_r/activation	glut_max1_r/activation	glut_max2_r/activation	glut_max3_r/activation	iliacus_r/activation	psoas_r/activation	quad_fem_r/activation	gem_r/activation	peri_r/activation	rect_fem_r/activation	vas_med_r/activation	vas_int_r/activation	vas_lat_r/activation	med_gas_r/activation	lat_gas_r/activation	soleus_r/activation	tib_post_r/activation	flex_dig_r/activation	flex_hal_r/activation	tib_ant_r/activation	per_brev_r/activation	per_long_r/activation	per_tert_r/activation	ext_dig_r/activation	ext_hal_r/activation	ercspn_r/activation	intobl_r/activation	extobl_r/activation	
          0.00000000	         -2.92973442	         -1.02319575	          3.09337824	          0.00000000	          0.91025240	         -0.00389078	        -16.72922674	          1.88915665	          7.25352408	         27.17086762	          2.94908956	         -2.25174638	         -8.54208797	         -6.27221249	          8.91144026	          7.35054720	          7.03747524	         -3.36670294	         -2.03555853	         -0.47542439	         12.14453868	          2.54047157	         -3.08825123	          0.34096888	         -2.02164307	          4.28423318	        -13.64666163	         19.21330559	         -6.22824509	        -13.45138130	          6.23247706	         32.07178930	         22.95976303	         86.51662706	         86.51662706	          0.35019134	          0.11438146	          0.08115704	          0.43594502	          0.25821116	          0.12528839	          0.05000061	          0.05000009	          0.05000006	          0.08115723	          0.10932714	          0.05000007	          0.05000004	          0.05000010	          0.05000031	          0.05000016	          0.56111042	          0.05000041	          0.05000021	          0.05000107	          0.05000042	          0.05000027	          0.32519932	          0.80285599	          0.05000004	          0.05000024	          0.05876170	          0.20758085	          0.05000009	          0.05000008	          0.05000009	          0.32398329	          0.39113476	          0.38605557	          0.37503803	          0.18070034	          0.39717976	          0.05000000	          0.05876112	          0.13346995	          0.05000006	          0.05000003	          0.09329776	          0.05000000	          0.05000000	          0.05000000	          0.05000013	          0.05000007	          0.05876082	          0.05000004	          0.05000006	          0.05000022	          0.22179600	          0.06905666	          0.24687041	          0.05000019	          0.05000111	          0.15001091	          0.17748799	          0.14129299	          0.16495390	          0.12932980	          0.05000181	          0.05030915	          0.13725693	          0.05876084	          0.05876099	          0.08948887	          0.05000007	          0.05000010	          0.15568815	          0.05000032	          0.05000008	          0.05000013	          0.05876091	          0.05876092	          0.05876084	          0.05001414	          0.05000042	          0.05000002	          0.05952787	          0.05252654	          0.05000107	          0.39048308	          0.26295345	          0.15044413	          0.13694465	          0.49059871	          0.05919299	          0.06322508	          0.08689778	          0.09440556	
          0.01051315	         -2.92663176	         -1.09918935	          3.25364035	          0.01661700	          0.91012017	         -0.00358676	        -16.58655336	          1.67829615	          7.25580385	         26.63614235	          3.34709415	         -2.16477049	        -10.51351967	         -6.37268565	          8.16147090	          6.84719029	          7.81338118	         -3.45012167	         -3.00152648	         -0.25011777	         15.41696371	          1.75856924	         -2.91053954	          0.54122147	         -2.13528153	          3.84394937	        -13.59703196	         19.03441246	         -6.89849753	        -13.45276629	          6.14380891	         33.24963012	         22.53661363	         86.51662706	         86.51662706	          0.29797962	          0.09732777	          0.06905694	          0.37094787	          0.21971321	          0.10660854	          0.05000089	          0.05000008	          0.05000006	          0.06905710	          0.09302706	          0.07606844	          0.08623467	          0.05000053	          0.05000139	          0.05000067	          0.55329920	          0.05876154	          0.05000020	          0.05000035	          0.05000025	          0.05000029	          0.27671377	          0.70770296	          0.05000002	          0.05000010	          0.05000067	          0.17882087	          0.13130723	          0.08381307	          0.05000417	          0.27567903	          0.33281856	          0.32849665	          0.33580500	          0.15840840	          0.36314435	          0.05000000	          0.05000018	          0.11357027	          0.05000005	          0.05000001	          0.07938756	          0.05000002	          0.06352065	          0.05000033	          0.05876094	          0.05876094	          0.05000003	          0.05876099	          0.05876098	          0.05875944	          0.19175505	          0.05876117	          0.21103023	          0.05876100	          0.05000011	          0.13171066	          0.18228719	          0.12022708	          0.17946287	          0.14232228	          0.05000006	          0.06294237	          0.17617340	          0.05000011	          0.05000008	          0.11126123	          0.05568122	          0.05000031	          0.45400743	          0.16187883	          0.10167916	          0.05000002	          0.05000012	          0.05000012	          0.05000010	          0.05918445	          0.07304850	          0.05000002	          0.05876095	          0.05000017	          0.05000053	          0.40785312	          0.36460169	          0.16411513	          0.11652715	          0.54232230	          0.08497211	          0.05379854	          0.07394176	          0.08033018	
          0.02102631	         -2.92068236	         -1.19183728	          3.39585431	          0.03345152	          0.91002263	         -0.00327384	        -16.34087463	          1.44756579	          7.23000878	         26.11403712	          3.68928709	         -2.06438509	        -12.61078894	         -7.00782700	          7.15310289	          5.97703539	          8.66027758	         -3.52619407	         -4.02342680	         -0.05439070	         18.96692999	          0.98349180	         -2.72199607	          0.76237498	         -2.23744870	          3.32593850	        -13.55900697	         18.83356563	         -7.57384547	        -13.48040409	          6.22209265	         34.49198358	         22.11971128	         86.51662706	         86.51662706	          0.25355239	          0.08281670	          0.05876098	          0.31564146	          0.18695510	          0.09071376	          0.05000423	          0.05000127	          0.05876091	          0.05876105	          0.07915724	          0.12890537	          0.15954802	          0.08399388	          0.05876155	          0.07036271	          0.47671836	          0.05000095	          0.05876113	          0.05876125	          0.05876115	          0.05876108	          0.23545716	          0.67528490	          0.05876103	          0.05876110	          0.05876093	          0.15215970	          0.11180689	          0.13172918	          0.13172469	          0.23457668	          0.28319701	          0.27951947	          0.28573820	          0.13479055	          0.30900145	          0.05000001	          0.05000000	          0.09663753	          0.05000001	          0.05000000	          0.06755131	          0.07893153	          0.06905692	          0.06415439	          0.05000000	          0.05000002	          0.13436994	          0.05000004	          0.05000003	          0.05000003	          0.16316539	          0.05000022	          0.17956672	          0.05000007	          0.06191227	          0.11207336	          0.35906869	          0.35266235	          0.23754087	          0.17569275	          0.05000013	          0.06908953	          0.16942953	          0.06908736	          0.11980610	          0.16933101	          0.05000043	          0.06596688	          0.52124385	          0.13774355	          0.08651936	          0.05876097	          0.05876105	          0.05876106	          0.05876103	          0.06905699	          0.06905704	          0.06905698	          0.05000000	          0.06905742	          0.06905698	          0.48695674	          0.33084900	          0.13964641	          0.36575363	          0.46146484	          0.07230321	          0.05000000	          0.06291742	          0.06835336	
          0.03153946	         -2.91197821	         -1.32398645	          3.51839148	          0.05043023	          0.90994929	         -0.00296684	        -15.98807817	          1.18406732	          7.18475992	         25.55590528	          3.94607989	         -1.90681463	        -14.82056541	         -7.80452182	          5.85628906	          4.92916838	          9.51155844	         -3.56209662	         -5.07606728	          0.17052600	         22.72135081	          0.29910636	         -2.52436439	          1.02607910	         -2.32867899	          2.74425962	        -13.52629524	         18.62135892	         -8.23280926	        -13.53721413	          6.45154164	         35.78134209	         21.68732119	         86.51662706	         86.51662706	          0.23170595	          0.07046916	          0.05000002	          0.30706579	          0.15908107	          0.07718881	          0.05000060	          0.05000004	          0.05000003	          0.05000013	          0.06735535	          0.14019265	          0.23661649	          0.07147089	          0.05000089	          0.05987207	          0.57127991	          0.05876170	          0.05000027	          0.05000044	          0.05000026	          0.05000019	          0.20035171	          0.63963086	          0.05000007	          0.05000015	          0.05000001	          0.12947356	          0.09513709	          0.11208906	          0.11208524	          0.19960249	          0.24097377	          0.23784453	          0.24313610	          0.11469397	          0.26293094	          0.14279900	          0.09539942	          0.08222942	          0.05000008	          0.17096949	          0.05747983	          0.09765388	          0.05876089	          0.05458930	          0.35565564	          0.36309523	          0.41243947	          0.44146131	          0.32636469	          0.31165530	          0.13911936	          0.11623427	          0.15623064	          0.06905771	          0.05876089	          0.09536381	          0.30553339	          0.30008223	          0.20212481	          0.21566528	          0.05000016	          0.05878876	          0.14416880	          0.25195426	          0.21053123	          0.20166617	          0.05876087	          0.05613163	          0.44352906	          0.11720673	          0.14360158	          0.05000002	          0.05000011	          0.05000011	          0.05000008	          0.05876095	          0.05876099	          0.05876094	          0.05876106	          0.05876132	          0.05876096	          0.60168576	          0.28152111	          0.11882588	          0.58204925	          0.65818056	          0.45457729	          0.07900033	          0.07709684	          0.05816222	
